<?xml version="1.0" encoding="UTF-8" standalone="no"?>
<!DOCTYPE svg PUBLIC "-//W3C//DTD SVG 1.1//EN"
 "http://www.w3.org/Graphics/SVG/1.1/DTD/svg11.dtd">
<!-- Generated by graphviz version 2.40.1 (20161225.0304)
 -->
<!-- Title: G Pages: 1 -->
<svg width="676pt" height="2396pt"
 viewBox="0.00 0.00 675.98 2396.00" xmlns="http://www.w3.org/2000/svg" xmlns:xlink="http://www.w3.org/1999/xlink">
<g id="graph0" class="graph" transform="scale(1 1) rotate(0) translate(4 2392)">
<title>G</title>
<polygon fill="#ffffff" stroke="transparent" points="-4,4 -4,-2392 671.9769,-2392 671.9769,4 -4,4"/>
<g id="clust1" class="cluster">
<title>cluster_Global</title>
<path fill="none" stroke="#c0c0c0" d="M20,-530C20,-530 647.9769,-530 647.9769,-530 653.9769,-530 659.9769,-536 659.9769,-542 659.9769,-542 659.9769,-2368 659.9769,-2368 659.9769,-2374 653.9769,-2380 647.9769,-2380 647.9769,-2380 20,-2380 20,-2380 14,-2380 8,-2374 8,-2368 8,-2368 8,-542 8,-542 8,-536 14,-530 20,-530"/>
<text text-anchor="middle" x="333.9885" y="-2367.2" font-family="Times,serif" font-size="11.00" fill="#c0c0c0">Global</text>
</g>
<g id="clust2" class="cluster">
<title>cluster_\MeTools</title>
<path fill="none" stroke="#c0c0c0" d="M236.0842,-538C236.0842,-538 639.9769,-538 639.9769,-538 645.9769,-538 651.9769,-544 651.9769,-550 651.9769,-550 651.9769,-2340 651.9769,-2340 651.9769,-2346 645.9769,-2352 639.9769,-2352 639.9769,-2352 236.0842,-2352 236.0842,-2352 230.0842,-2352 224.0842,-2346 224.0842,-2340 224.0842,-2340 224.0842,-550 224.0842,-550 224.0842,-544 230.0842,-538 236.0842,-538"/>
<text text-anchor="middle" x="438.0306" y="-2339.2" font-family="Times,serif" font-size="11.00" fill="#c0c0c0">MeTools</text>
</g>
<g id="clust3" class="cluster">
<title>cluster_\MeTools\View</title>
<path fill="none" stroke="#c0c0c0" d="M465.9769,-976C465.9769,-976 604.9769,-976 604.9769,-976 610.9769,-976 616.9769,-982 616.9769,-988 616.9769,-988 616.9769,-1576 616.9769,-1576 616.9769,-1582 610.9769,-1588 604.9769,-1588 604.9769,-1588 465.9769,-1588 465.9769,-1588 459.9769,-1588 453.9769,-1582 453.9769,-1576 453.9769,-1576 453.9769,-988 453.9769,-988 453.9769,-982 459.9769,-976 465.9769,-976"/>
<text text-anchor="middle" x="535.4769" y="-1575.2" font-family="Times,serif" font-size="11.00" fill="#c0c0c0">View</text>
</g>
<g id="clust4" class="cluster">
<title>cluster_\MeTools\View\Helper</title>
<path fill="none" stroke="#c0c0c0" d="M473.9769,-1110C473.9769,-1110 596.9769,-1110 596.9769,-1110 602.9769,-1110 608.9769,-1116 608.9769,-1122 608.9769,-1122 608.9769,-1548 608.9769,-1548 608.9769,-1554 602.9769,-1560 596.9769,-1560 596.9769,-1560 473.9769,-1560 473.9769,-1560 467.9769,-1560 461.9769,-1554 461.9769,-1548 461.9769,-1548 461.9769,-1122 461.9769,-1122 461.9769,-1116 467.9769,-1110 473.9769,-1110"/>
<text text-anchor="middle" x="535.4769" y="-1547.2" font-family="Times,serif" font-size="11.00" fill="#c0c0c0">Helper</text>
</g>
<g id="clust5" class="cluster">
<title>cluster_\MeTools\View\Widget</title>
<path fill="none" stroke="#c0c0c0" d="M490.4769,-1030C490.4769,-1030 580.4769,-1030 580.4769,-1030 586.4769,-1030 592.4769,-1036 592.4769,-1042 592.4769,-1042 592.4769,-1090 592.4769,-1090 592.4769,-1096 586.4769,-1102 580.4769,-1102 580.4769,-1102 490.4769,-1102 490.4769,-1102 484.4769,-1102 478.4769,-1096 478.4769,-1090 478.4769,-1090 478.4769,-1042 478.4769,-1042 478.4769,-1036 484.4769,-1030 490.4769,-1030"/>
<text text-anchor="middle" x="535.4769" y="-1089.2" font-family="Times,serif" font-size="11.00" fill="#c0c0c0">Widget</text>
</g>
<g id="clust6" class="cluster">
<title>cluster_\MeTools\TestSuite</title>
<path fill="none" stroke="#c0c0c0" d="M244.0842,-1596C244.0842,-1596 630.9769,-1596 630.9769,-1596 636.9769,-1596 642.9769,-1602 642.9769,-1608 642.9769,-1608 642.9769,-1872 642.9769,-1872 642.9769,-1878 636.9769,-1884 630.9769,-1884 630.9769,-1884 244.0842,-1884 244.0842,-1884 238.0842,-1884 232.0842,-1878 232.0842,-1872 232.0842,-1872 232.0842,-1608 232.0842,-1608 232.0842,-1602 238.0842,-1596 244.0842,-1596"/>
<text text-anchor="middle" x="437.5306" y="-1871.2" font-family="Times,serif" font-size="11.00" fill="#c0c0c0">TestSuite</text>
</g>
<g id="clust7" class="cluster">
<title>cluster_\MeTools\Command</title>
<path fill="none" stroke="#c0c0c0" d="M438.9769,-1892C438.9769,-1892 631.9769,-1892 631.9769,-1892 637.9769,-1892 643.9769,-1898 643.9769,-1904 643.9769,-1904 643.9769,-2312 643.9769,-2312 643.9769,-2318 637.9769,-2324 631.9769,-2324 631.9769,-2324 438.9769,-2324 438.9769,-2324 432.9769,-2324 426.9769,-2318 426.9769,-2312 426.9769,-2312 426.9769,-1904 426.9769,-1904 426.9769,-1898 432.9769,-1892 438.9769,-1892"/>
<text text-anchor="middle" x="535.4769" y="-2311.2" font-family="Times,serif" font-size="11.00" fill="#c0c0c0">Command</text>
</g>
<g id="clust8" class="cluster">
<title>cluster_\MeTools\Command\Install</title>
<path fill="none" stroke="#c0c0c0" d="M446.9769,-1900C446.9769,-1900 623.9769,-1900 623.9769,-1900 629.9769,-1900 635.9769,-1906 635.9769,-1912 635.9769,-1912 635.9769,-2284 635.9769,-2284 635.9769,-2290 629.9769,-2296 623.9769,-2296 623.9769,-2296 446.9769,-2296 446.9769,-2296 440.9769,-2296 434.9769,-2290 434.9769,-2284 434.9769,-2284 434.9769,-1912 434.9769,-1912 434.9769,-1906 440.9769,-1900 446.9769,-1900"/>
<text text-anchor="middle" x="535.4769" y="-2283.2" font-family="Times,serif" font-size="11.00" fill="#c0c0c0">Install</text>
</g>
<g id="clust9" class="cluster">
<title>cluster_\MeTools\Core</title>
<path fill="none" stroke="#c0c0c0" d="M510.9769,-896C510.9769,-896 559.9769,-896 559.9769,-896 565.9769,-896 571.9769,-902 571.9769,-908 571.9769,-908 571.9769,-956 571.9769,-956 571.9769,-962 565.9769,-968 559.9769,-968 559.9769,-968 510.9769,-968 510.9769,-968 504.9769,-968 498.9769,-962 498.9769,-956 498.9769,-956 498.9769,-908 498.9769,-908 498.9769,-902 504.9769,-896 510.9769,-896"/>
<text text-anchor="middle" x="535.4769" y="-955.2" font-family="Times,serif" font-size="11.00" fill="#c0c0c0">Core</text>
</g>
<g id="clust10" class="cluster">
<title>cluster_\MeTools\Controller</title>
<path fill="none" stroke="#c0c0c0" d="M465.9769,-726C465.9769,-726 604.9769,-726 604.9769,-726 610.9769,-726 616.9769,-732 616.9769,-738 616.9769,-738 616.9769,-876 616.9769,-876 616.9769,-882 610.9769,-888 604.9769,-888 604.9769,-888 465.9769,-888 465.9769,-888 459.9769,-888 453.9769,-882 453.9769,-876 453.9769,-876 453.9769,-738 453.9769,-738 453.9769,-732 459.9769,-726 465.9769,-726"/>
<text text-anchor="middle" x="535.4769" y="-875.2" font-family="Times,serif" font-size="11.00" fill="#c0c0c0">Controller</text>
</g>
<g id="clust11" class="cluster">
<title>cluster_\MeTools\Controller\Component</title>
<path fill="none" stroke="#c0c0c0" d="M473.9769,-734C473.9769,-734 596.9769,-734 596.9769,-734 602.9769,-734 608.9769,-740 608.9769,-746 608.9769,-746 608.9769,-848 608.9769,-848 608.9769,-854 602.9769,-860 596.9769,-860 596.9769,-860 473.9769,-860 473.9769,-860 467.9769,-860 461.9769,-854 461.9769,-848 461.9769,-848 461.9769,-746 461.9769,-746 461.9769,-740 467.9769,-734 473.9769,-734"/>
<text text-anchor="middle" x="535.4769" y="-847.2" font-family="Times,serif" font-size="11.00" fill="#c0c0c0">Component</text>
</g>
<g id="clust12" class="cluster">
<title>cluster_\MeTools\Utility</title>
<path fill="none" stroke="#c0c0c0" d="M507.4769,-592C507.4769,-592 563.4769,-592 563.4769,-592 569.4769,-592 575.4769,-598 575.4769,-604 575.4769,-604 575.4769,-706 575.4769,-706 575.4769,-712 569.4769,-718 563.4769,-718 563.4769,-718 507.4769,-718 507.4769,-718 501.4769,-718 495.4769,-712 495.4769,-706 495.4769,-706 495.4769,-604 495.4769,-604 495.4769,-598 501.4769,-592 507.4769,-592"/>
<text text-anchor="middle" x="535.4769" y="-705.2" font-family="Times,serif" font-size="11.00" fill="#c0c0c0">Utility</text>
</g>
<g id="clust13" class="cluster">
<title>cluster_\MeTools\Console</title>
<path fill="none" stroke="#c0c0c0" d="M244.0842,-2062C244.0842,-2062 320.0842,-2062 320.0842,-2062 326.0842,-2062 332.0842,-2068 332.0842,-2074 332.0842,-2074 332.0842,-2122 332.0842,-2122 332.0842,-2128 326.0842,-2134 320.0842,-2134 320.0842,-2134 244.0842,-2134 244.0842,-2134 238.0842,-2134 232.0842,-2128 232.0842,-2122 232.0842,-2122 232.0842,-2074 232.0842,-2074 232.0842,-2068 238.0842,-2062 244.0842,-2062"/>
<text text-anchor="middle" x="282.0842" y="-2121.2" font-family="Times,serif" font-size="11.00" fill="#c0c0c0">Console</text>
</g>
<g id="clust14" class="cluster">
<title>cluster_Global\Cake</title>
<path fill="none" stroke="#c0c0c0" d="M28,-2054C28,-2054 132.1915,-2054 132.1915,-2054 138.1915,-2054 144.1915,-2060 144.1915,-2066 144.1915,-2066 144.1915,-2150 144.1915,-2150 144.1915,-2156 138.1915,-2162 132.1915,-2162 132.1915,-2162 28,-2162 28,-2162 22,-2162 16,-2156 16,-2150 16,-2150 16,-2066 16,-2066 16,-2060 22,-2054 28,-2054"/>
<text text-anchor="middle" x="80.0957" y="-2149.2" font-family="Times,serif" font-size="11.00" fill="#c0c0c0">Cake</text>
</g>
<g id="clust15" class="cluster">
<title>cluster_Global\Cake\Console</title>
<path fill="none" stroke="#c0c0c0" d="M36,-2062C36,-2062 124.1915,-2062 124.1915,-2062 130.1915,-2062 136.1915,-2068 136.1915,-2074 136.1915,-2074 136.1915,-2122 136.1915,-2122 136.1915,-2128 130.1915,-2134 124.1915,-2134 124.1915,-2134 36,-2134 36,-2134 30,-2134 24,-2128 24,-2122 24,-2122 24,-2074 24,-2074 24,-2068 30,-2062 36,-2062"/>
<text text-anchor="middle" x="80.0957" y="-2121.2" font-family="Times,serif" font-size="11.00" fill="#c0c0c0">Console</text>
</g>
<!-- \\MeTools\\View\\Helper\\HtmlHelper -->
<g id="node1" class="node">
<title>\\MeTools\\View\\Helper\\HtmlHelper</title>
<polygon fill="none" stroke="#000000" points="577.4769,-1532 493.4769,-1532 493.4769,-1496 577.4769,-1496 577.4769,-1532"/>
<text text-anchor="middle" x="535.4769" y="-1511.2" font-family="Courier,monospace" font-size="11.00" fill="#000000">HtmlHelper</text>
</g>
<!-- HtmlHelper -->
<g id="node32" class="node">
<title>HtmlHelper</title>
<ellipse fill="none" stroke="#000000" cx="282.0842" cy="-504" rx="53.0913" ry="18"/>
<text text-anchor="middle" x="282.0842" y="-500.3" font-family="Times,serif" font-size="14.00" fill="#000000">HtmlHelper</text>
</g>
<!-- \\MeTools\\View\\Helper\\HtmlHelper&#45;&gt;HtmlHelper -->
<g id="edge1" class="edge">
<title>\\MeTools\\View\\Helper\\HtmlHelper&#45;&gt;HtmlHelper</title>
<path fill="none" stroke="#000000" d="M493.4765,-1514.2782C470.5818,-1512.1019 443.6033,-1505.3329 426.9769,-1487 360.6309,-1413.8444 297.039,-684.9611 284.3648,-532.0481"/>
<polygon fill="none" stroke="#000000" points="287.8505,-531.7294 283.5409,-522.0507 280.8741,-532.3044 287.8505,-531.7294"/>
</g>
<!-- \\MeTools\\View\\Helper\\BreadcrumbsHelper -->
<g id="node2" class="node">
<title>\\MeTools\\View\\Helper\\BreadcrumbsHelper</title>
<polygon fill="none" stroke="#000000" points="600.9769,-1424 469.9769,-1424 469.9769,-1388 600.9769,-1388 600.9769,-1424"/>
<text text-anchor="middle" x="535.4769" y="-1403.2" font-family="Courier,monospace" font-size="11.00" fill="#000000">BreadcrumbsHelper</text>
</g>
<!-- BreadcrumbsHelper -->
<g id="node35" class="node">
<title>BreadcrumbsHelper</title>
<ellipse fill="none" stroke="#000000" cx="282.0842" cy="-450" rx="81.7856" ry="18"/>
<text text-anchor="middle" x="282.0842" y="-446.3" font-family="Times,serif" font-size="14.00" fill="#000000">BreadcrumbsHelper</text>
</g>
<!-- \\MeTools\\View\\Helper\\BreadcrumbsHelper&#45;&gt;BreadcrumbsHelper -->
<g id="edge6" class="edge">
<title>\\MeTools\\View\\Helper\\BreadcrumbsHelper&#45;&gt;BreadcrumbsHelper</title>
<path fill="none" stroke="#000000" d="M469.9657,-1403.0783C453.6597,-1399.1127 437.7722,-1391.8605 426.9769,-1379 297.7913,-1225.1005 487.3349,-635.6089 363.9769,-477 360.9756,-473.141 357.4074,-469.8272 353.4658,-466.9823"/>
<polygon fill="none" stroke="#000000" points="355.2746,-463.9859 344.9127,-461.7768 351.6353,-469.9655 355.2746,-463.9859"/>
</g>
<!-- \\MeTools\\View\\Helper\\BBCodeHelper -->
<g id="node3" class="node">
<title>\\MeTools\\View\\Helper\\BBCodeHelper</title>
<polygon fill="none" stroke="#000000" points="584.4769,-1316 486.4769,-1316 486.4769,-1280 584.4769,-1280 584.4769,-1316"/>
<text text-anchor="middle" x="535.4769" y="-1295.2" font-family="Courier,monospace" font-size="11.00" fill="#000000">BBCodeHelper</text>
</g>
<!-- Helper -->
<g id="node36" class="node">
<title>Helper</title>
<ellipse fill="none" stroke="#000000" cx="282.0842" cy="-396" rx="34.394" ry="18"/>
<text text-anchor="middle" x="282.0842" y="-392.3" font-family="Times,serif" font-size="14.00" fill="#000000">Helper</text>
</g>
<!-- \\MeTools\\View\\Helper\\BBCodeHelper&#45;&gt;Helper -->
<g id="edge7" class="edge">
<title>\\MeTools\\View\\Helper\\BBCodeHelper&#45;&gt;Helper</title>
<path fill="none" stroke="#000000" d="M486.3652,-1298.0172C464.9266,-1295.31 441.4294,-1288.1401 426.9769,-1271 305.1667,-1126.537 480.3166,-571.904 363.9769,-423 354.7659,-411.2107 340.2663,-404.5114 326.0109,-400.7245"/>
<polygon fill="none" stroke="#000000" points="326.7717,-397.3083 316.2488,-398.5414 325.2439,-404.1395 326.7717,-397.3083"/>
</g>
<!-- \\MeTools\\View\\Helper\\DropdownHelper -->
<g id="node4" class="node">
<title>\\MeTools\\View\\Helper\\DropdownHelper</title>
<polygon fill="none" stroke="#000000" points="590.9769,-1262 479.9769,-1262 479.9769,-1226 590.9769,-1226 590.9769,-1262"/>
<text text-anchor="middle" x="535.4769" y="-1241.2" font-family="Courier,monospace" font-size="11.00" fill="#000000">DropdownHelper</text>
</g>
<!-- \\MeTools\\View\\Helper\\DropdownHelper&#45;&gt;Helper -->
<g id="edge12" class="edge">
<title>\\MeTools\\View\\Helper\\DropdownHelper&#45;&gt;Helper</title>
<path fill="none" stroke="#000000" d="M479.9521,-1243.0358C460.3831,-1239.7445 440.0291,-1232.4008 426.9769,-1217 312.5399,-1081.9711 473.3001,-562.2016 363.9769,-423 354.7363,-411.2339 340.2302,-404.5396 325.9779,-400.7504"/>
<polygon fill="none" stroke="#000000" points="326.7426,-397.335 316.2194,-398.5645 325.2125,-404.1657 326.7426,-397.335"/>
</g>
<!-- \\MeTools\\View\\Helper\\PaginatorHelper -->
<g id="node5" class="node">
<title>\\MeTools\\View\\Helper\\PaginatorHelper</title>
<polygon fill="none" stroke="#000000" points="594.4769,-1208 476.4769,-1208 476.4769,-1172 594.4769,-1172 594.4769,-1208"/>
<text text-anchor="middle" x="535.4769" y="-1187.2" font-family="Courier,monospace" font-size="11.00" fill="#000000">PaginatorHelper</text>
</g>
<!-- PaginatorHelper -->
<g id="node39" class="node">
<title>PaginatorHelper</title>
<ellipse fill="none" stroke="#000000" cx="282.0842" cy="-342" rx="68.4888" ry="18"/>
<text text-anchor="middle" x="282.0842" y="-338.3" font-family="Times,serif" font-size="14.00" fill="#000000">PaginatorHelper</text>
</g>
<!-- \\MeTools\\View\\Helper\\PaginatorHelper&#45;&gt;PaginatorHelper -->
<g id="edge13" class="edge">
<title>\\MeTools\\View\\Helper\\PaginatorHelper&#45;&gt;PaginatorHelper</title>
<path fill="none" stroke="#000000" d="M476.2757,-1188.3702C457.8674,-1184.7951 439.2134,-1177.4383 426.9769,-1163 312.5399,-1027.9711 473.3001,-508.2016 363.9769,-369 359.9721,-363.9006 354.9782,-359.7539 349.4446,-356.3834"/>
<polygon fill="none" stroke="#000000" points="350.8609,-353.1758 340.3693,-351.7006 347.651,-359.3965 350.8609,-353.1758"/>
</g>
<!-- \\MeTools\\View\\Helper\\IconHelper -->
<g id="node6" class="node">
<title>\\MeTools\\View\\Helper\\IconHelper</title>
<polygon fill="none" stroke="#000000" points="577.4769,-1478 493.4769,-1478 493.4769,-1442 577.4769,-1442 577.4769,-1478"/>
<text text-anchor="middle" x="535.4769" y="-1457.2" font-family="Courier,monospace" font-size="11.00" fill="#000000">IconHelper</text>
</g>
<!-- \\MeTools\\View\\Helper\\IconHelper&#45;&gt;HtmlHelper -->
<g id="edge14" class="edge">
<title>\\MeTools\\View\\Helper\\IconHelper&#45;&gt;HtmlHelper</title>
<path fill="none" stroke="#000000" d="M493.2651,-1460.1994C470.4473,-1457.9785 443.6145,-1451.1915 426.9769,-1433 302.153,-1296.5174 284.7824,-673.7088 282.4392,-532.5194"/>
<polygon fill="none" stroke="#000000" points="285.9329,-532.0727 282.2801,-522.1275 278.9337,-532.18 285.9329,-532.0727"/>
</g>
<!-- \\MeTools\\View\\Helper\\LibraryHelper -->
<g id="node7" class="node">
<title>\\MeTools\\View\\Helper\\LibraryHelper</title>
<polygon fill="none" stroke="#000000" points="587.4769,-1370 483.4769,-1370 483.4769,-1334 587.4769,-1334 587.4769,-1370"/>
<text text-anchor="middle" x="535.4769" y="-1349.2" font-family="Courier,monospace" font-size="11.00" fill="#000000">LibraryHelper</text>
</g>
<!-- \\MeTools\\View\\Helper\\LibraryHelper&#45;&gt;Helper -->
<g id="edge19" class="edge">
<title>\\MeTools\\View\\Helper\\LibraryHelper&#45;&gt;Helper</title>
<path fill="none" stroke="#000000" d="M483.2545,-1351.6292C462.668,-1348.6392 440.705,-1341.3544 426.9769,-1325 297.7913,-1171.1005 487.3349,-581.6089 363.9769,-423 354.792,-411.1904 340.2981,-404.4865 326.04,-400.7018"/>
<polygon fill="none" stroke="#000000" points="326.7973,-397.2848 316.2748,-398.5211 325.2716,-404.1165 326.7973,-397.2848"/>
</g>
<!-- \\MeTools\\View\\Helper\\FormHelper -->
<g id="node8" class="node">
<title>\\MeTools\\View\\Helper\\FormHelper</title>
<polygon fill="none" stroke="#000000" points="577.4769,-1154 493.4769,-1154 493.4769,-1118 577.4769,-1118 577.4769,-1154"/>
<text text-anchor="middle" x="535.4769" y="-1133.2" font-family="Courier,monospace" font-size="11.00" fill="#000000">FormHelper</text>
</g>
<!-- FormHelper -->
<g id="node42" class="node">
<title>FormHelper</title>
<ellipse fill="none" stroke="#000000" cx="282.0842" cy="-288" rx="53.8905" ry="18"/>
<text text-anchor="middle" x="282.0842" y="-284.3" font-family="Times,serif" font-size="14.00" fill="#000000">FormHelper</text>
</g>
<!-- \\MeTools\\View\\Helper\\FormHelper&#45;&gt;FormHelper -->
<g id="edge20" class="edge">
<title>\\MeTools\\View\\Helper\\FormHelper&#45;&gt;FormHelper</title>
<path fill="none" stroke="#000000" d="M493.4443,-1135.4981C470.2425,-1132.8476 442.9676,-1125.3646 426.9769,-1106 314.6984,-970.0318 472.9104,-453.6626 363.9769,-315 358.2041,-307.6517 350.3775,-302.2816 341.8419,-298.3619"/>
<polygon fill="none" stroke="#000000" points="342.9531,-295.0384 332.3653,-294.653 340.4019,-301.5569 342.9531,-295.0384"/>
</g>
<!-- \\MeTools\\View\\Widget\\HiddenWidget -->
<g id="node9" class="node">
<title>\\MeTools\\View\\Widget\\HiddenWidget</title>
<polygon fill="none" stroke="#000000" points="584.4769,-1074 486.4769,-1074 486.4769,-1038 584.4769,-1038 584.4769,-1074"/>
<text text-anchor="middle" x="535.4769" y="-1053.2" font-family="Courier,monospace" font-size="11.00" fill="#000000">HiddenWidget</text>
</g>
<!-- BasicWidget -->
<g id="node37" class="node">
<title>BasicWidget</title>
<ellipse fill="none" stroke="#000000" cx="282.0842" cy="-234" rx="56.59" ry="18"/>
<text text-anchor="middle" x="282.0842" y="-230.3" font-family="Times,serif" font-size="14.00" fill="#000000">BasicWidget</text>
</g>
<!-- \\MeTools\\View\\Widget\\HiddenWidget&#45;&gt;BasicWidget -->
<g id="edge8" class="edge">
<title>\\MeTools\\View\\Widget\\HiddenWidget&#45;&gt;BasicWidget</title>
<path fill="none" stroke="#000000" d="M486.3456,-1058.3727C465.0368,-1056.6473 441.6514,-1050.5291 426.9769,-1034 312.5542,-905.1162 470.5721,-396.4292 363.9769,-261 358.5865,-254.1514 351.4124,-249.0214 343.5448,-245.1825"/>
<polygon fill="none" stroke="#000000" points="344.6333,-241.8448 334.0556,-241.2434 341.9495,-248.3099 344.6333,-241.8448"/>
</g>
<!-- \\MeTools\\View\\OptionsParser -->
<g id="node10" class="node">
<title>\\MeTools\\View\\OptionsParser</title>
<polygon fill="none" stroke="#000000" points="587.4769,-1020 483.4769,-1020 483.4769,-984 587.4769,-984 587.4769,-1020"/>
<text text-anchor="middle" x="535.4769" y="-999.2" font-family="Courier,monospace" font-size="11.00" fill="#000000">OptionsParser</text>
</g>
<!-- \\MeTools\\TestSuite\\TestCase -->
<g id="node11" class="node">
<title>\\MeTools\\TestSuite\\TestCase</title>
<polygon fill="none" stroke="#000000" points="324.0842,-1802 240.0842,-1802 240.0842,-1766 324.0842,-1766 324.0842,-1802"/>
<text text-anchor="start" x="248.0842" y="-1787.2" font-family="Courier,monospace" font-size="11.00" fill="#000000">«abstract»</text>
<text text-anchor="start" x="254.5842" y="-1775.2" font-family="Courier,monospace" font-size="11.00" fill="#000000">TestCase</text>
</g>
<!-- TestCase -->
<g id="node38" class="node">
<title>TestCase</title>
<ellipse fill="none" stroke="#000000" cx="80.0957" cy="-504" rx="42.7926" ry="18"/>
<text text-anchor="middle" x="80.0957" y="-500.3" font-family="Times,serif" font-size="14.00" fill="#000000">TestCase</text>
</g>
<!-- \\MeTools\\TestSuite\\TestCase&#45;&gt;TestCase -->
<g id="edge9" class="edge">
<title>\\MeTools\\TestSuite\\TestCase&#45;&gt;TestCase</title>
<path fill="none" stroke="#000000" d="M279.2288,-1765.9055C257.0134,-1625.1263 111.9501,-705.8607 84.5549,-532.2578"/>
<polygon fill="none" stroke="#000000" points="88.0072,-531.6803 82.9911,-522.3481 81.0927,-532.7715 88.0072,-531.6803"/>
</g>
<!-- \\MeTools\\TestSuite\\HelperTestCase -->
<g id="node12" class="node">
<title>\\MeTools\\TestSuite\\HelperTestCase</title>
<polygon fill="none" stroke="#000000" points="590.9769,-1856 479.9769,-1856 479.9769,-1820 590.9769,-1820 590.9769,-1856"/>
<text text-anchor="start" x="501.4769" y="-1841.2" font-family="Courier,monospace" font-size="11.00" fill="#000000">«abstract»</text>
<text text-anchor="start" x="487.9769" y="-1829.2" font-family="Courier,monospace" font-size="11.00" fill="#000000">HelperTestCase</text>
</g>
<!-- \\MeTools\\TestSuite\\HelperTestCase&#45;&gt;\\MeTools\\TestSuite\\TestCase -->
<g id="edge11" class="edge">
<title>\\MeTools\\TestSuite\\HelperTestCase&#45;&gt;\\MeTools\\TestSuite\\TestCase</title>
<path fill="none" stroke="#000000" d="M479.8688,-1826.1495C436.4401,-1816.8945 376.5351,-1804.1282 334.0617,-1795.0768"/>
<polygon fill="none" stroke="#000000" points="334.7101,-1791.6365 324.2002,-1792.9752 333.251,-1798.4827 334.7101,-1791.6365"/>
</g>
<!-- \\MeTools\\TestSuite\\ComponentTestCase -->
<g id="node13" class="node">
<title>\\MeTools\\TestSuite\\ComponentTestCase</title>
<polygon fill="none" stroke="#000000" points="600.9769,-1802 469.9769,-1802 469.9769,-1766 600.9769,-1766 600.9769,-1802"/>
<text text-anchor="start" x="501.4769" y="-1787.2" font-family="Courier,monospace" font-size="11.00" fill="#000000">«abstract»</text>
<text text-anchor="start" x="477.9769" y="-1775.2" font-family="Courier,monospace" font-size="11.00" fill="#000000">ComponentTestCase</text>
</g>
<!-- \\MeTools\\TestSuite\\ComponentTestCase&#45;&gt;\\MeTools\\TestSuite\\TestCase -->
<g id="edge22" class="edge">
<title>\\MeTools\\TestSuite\\ComponentTestCase&#45;&gt;\\MeTools\\TestSuite\\TestCase</title>
<path fill="none" stroke="#000000" d="M469.8925,-1784C427.7595,-1784 373.7697,-1784 334.4994,-1784"/>
<polygon fill="none" stroke="#000000" points="334.3432,-1780.5001 324.3432,-1784 334.3432,-1787.5001 334.3432,-1780.5001"/>
</g>
<!-- \\MeTools\\TestSuite\\MockTrait -->
<g id="node14" class="node">
<title>\\MeTools\\TestSuite\\MockTrait</title>
<polygon fill="none" stroke="#000000" points="573.9769,-1748 496.9769,-1748 496.9769,-1712 573.9769,-1712 573.9769,-1748"/>
<text text-anchor="middle" x="535.4769" y="-1727.2" font-family="Courier,monospace" font-size="11.00" fill="#000000">MockTrait</text>
</g>
<!-- \\MeTools\\TestSuite\\IntegrationTestTrait -->
<g id="node15" class="node">
<title>\\MeTools\\TestSuite\\IntegrationTestTrait</title>
<polygon fill="none" stroke="#000000" points="611.4769,-1694 459.4769,-1694 459.4769,-1658 611.4769,-1658 611.4769,-1694"/>
<text text-anchor="middle" x="535.4769" y="-1673.2" font-family="Courier,monospace" font-size="11.00" fill="#000000">IntegrationTestTrait</text>
</g>
<!-- \\MeTools\\TestSuite\\ConsoleIntegrationTestTrait -->
<g id="node16" class="node">
<title>\\MeTools\\TestSuite\\ConsoleIntegrationTestTrait</title>
<polygon fill="none" stroke="#000000" points="634.9769,-1640 435.9769,-1640 435.9769,-1604 634.9769,-1604 634.9769,-1640"/>
<text text-anchor="middle" x="535.4769" y="-1619.2" font-family="Courier,monospace" font-size="11.00" fill="#000000">ConsoleIntegrationTestTrait</text>
</g>
<!-- \\MeTools\\Command\\Install\\RunAllCommand -->
<g id="node17" class="node">
<title>\\MeTools\\Command\\Install\\RunAllCommand</title>
<polygon fill="none" stroke="#000000" points="587.4769,-2268 483.4769,-2268 483.4769,-2232 587.4769,-2232 587.4769,-2268"/>
<text text-anchor="middle" x="535.4769" y="-2247.2" font-family="Courier,monospace" font-size="11.00" fill="#000000">RunAllCommand</text>
</g>
<!-- \\MeTools\\Console\\Command -->
<g id="node29" class="node">
<title>\\MeTools\\Console\\Command</title>
<polygon fill="none" stroke="#000000" points="324.0842,-2106 240.0842,-2106 240.0842,-2070 324.0842,-2070 324.0842,-2106"/>
<text text-anchor="start" x="248.0842" y="-2091.2" font-family="Courier,monospace" font-size="11.00" fill="#000000">«abstract»</text>
<text text-anchor="start" x="258.0842" y="-2079.2" font-family="Courier,monospace" font-size="11.00" fill="#000000">Command</text>
</g>
<!-- \\MeTools\\Command\\Install\\RunAllCommand&#45;&gt;\\MeTools\\Console\\Command -->
<g id="edge2" class="edge">
<title>\\MeTools\\Command\\Install\\RunAllCommand&#45;&gt;\\MeTools\\Console\\Command</title>
<path fill="none" stroke="#000000" d="M483.2697,-2242.5719C464.7344,-2238.5217 444.2106,-2232.3473 426.9769,-2223 375.6522,-2195.162 328.6601,-2144.849 302.8386,-2114.1304"/>
<polygon fill="none" stroke="#000000" points="305.508,-2111.8662 296.4354,-2106.3946 300.1156,-2116.3297 305.508,-2111.8662"/>
</g>
<!-- \\MeTools\\Command\\Install\\CreatePluginsLinksCommand -->
<g id="node18" class="node">
<title>\\MeTools\\Command\\Install\\CreatePluginsLinksCommand</title>
<polygon fill="none" stroke="#000000" points="627.9769,-2214 442.9769,-2214 442.9769,-2178 627.9769,-2178 627.9769,-2214"/>
<text text-anchor="middle" x="535.4769" y="-2193.2" font-family="Courier,monospace" font-size="11.00" fill="#000000">CreatePluginsLinksCommand</text>
</g>
<!-- \\MeTools\\Command\\Install\\CreatePluginsLinksCommand&#45;&gt;\\MeTools\\Console\\Command -->
<g id="edge5" class="edge">
<title>\\MeTools\\Command\\Install\\CreatePluginsLinksCommand&#45;&gt;\\MeTools\\Console\\Command</title>
<path fill="none" stroke="#000000" d="M452.9886,-2177.9349C444.1018,-2175.2623 435.2796,-2172.2857 426.9769,-2169 388.0471,-2153.5941 346.6399,-2129.588 318.1043,-2111.7041"/>
<polygon fill="none" stroke="#000000" points="319.6314,-2108.5282 309.3112,-2106.1314 315.8842,-2114.4409 319.6314,-2108.5282"/>
</g>
<!-- \\MeTools\\Command\\Install\\CreateRobotsCommand -->
<g id="node19" class="node">
<title>\\MeTools\\Command\\Install\\CreateRobotsCommand</title>
<polygon fill="none" stroke="#000000" points="607.9769,-2160 462.9769,-2160 462.9769,-2124 607.9769,-2124 607.9769,-2160"/>
<text text-anchor="middle" x="535.4769" y="-2139.2" font-family="Courier,monospace" font-size="11.00" fill="#000000">CreateRobotsCommand</text>
</g>
<!-- \\MeTools\\Command\\Install\\CreateRobotsCommand&#45;&gt;\\MeTools\\Console\\Command -->
<g id="edge10" class="edge">
<title>\\MeTools\\Command\\Install\\CreateRobotsCommand&#45;&gt;\\MeTools\\Console\\Command</title>
<path fill="none" stroke="#000000" d="M462.8647,-2126.5258C421.8261,-2117.7801 371.4673,-2107.0483 334.3325,-2099.1345"/>
<polygon fill="none" stroke="#000000" points="334.7379,-2095.6424 324.228,-2096.9812 333.2788,-2102.4887 334.7379,-2095.6424"/>
</g>
<!-- \\MeTools\\Command\\Install\\FixComposerJsonCommand -->
<g id="node20" class="node">
<title>\\MeTools\\Command\\Install\\FixComposerJsonCommand</title>
<polygon fill="none" stroke="#000000" points="617.9769,-2106 452.9769,-2106 452.9769,-2070 617.9769,-2070 617.9769,-2106"/>
<text text-anchor="middle" x="535.4769" y="-2085.2" font-family="Courier,monospace" font-size="11.00" fill="#000000">FixComposerJsonCommand</text>
</g>
<!-- \\MeTools\\Command\\Install\\FixComposerJsonCommand&#45;&gt;\\MeTools\\Console\\Command -->
<g id="edge15" class="edge">
<title>\\MeTools\\Command\\Install\\FixComposerJsonCommand&#45;&gt;\\MeTools\\Console\\Command</title>
<path fill="none" stroke="#000000" d="M452.8573,-2088C413.8539,-2088 368.4839,-2088 334.3151,-2088"/>
<polygon fill="none" stroke="#000000" points="334.0901,-2084.5001 324.0901,-2088 334.0901,-2091.5001 334.0901,-2084.5001"/>
</g>
<!-- \\MeTools\\Command\\Install\\SetPermissionsCommand -->
<g id="node21" class="node">
<title>\\MeTools\\Command\\Install\\SetPermissionsCommand</title>
<polygon fill="none" stroke="#000000" points="614.4769,-2052 456.4769,-2052 456.4769,-2016 614.4769,-2016 614.4769,-2052"/>
<text text-anchor="middle" x="535.4769" y="-2031.2" font-family="Courier,monospace" font-size="11.00" fill="#000000">SetPermissionsCommand</text>
</g>
<!-- \\MeTools\\Command\\Install\\SetPermissionsCommand&#45;&gt;\\MeTools\\Console\\Command -->
<g id="edge17" class="edge">
<title>\\MeTools\\Command\\Install\\SetPermissionsCommand&#45;&gt;\\MeTools\\Console\\Command</title>
<path fill="none" stroke="#000000" d="M456.3442,-2050.8638C416.5625,-2059.3416 369.4619,-2069.3791 334.2643,-2076.88"/>
<polygon fill="none" stroke="#000000" points="333.2583,-2073.5157 324.2074,-2079.0232 334.7173,-2080.362 333.2583,-2073.5157"/>
</g>
<!-- \\MeTools\\Command\\Install\\CreateDirectoriesCommand -->
<g id="node22" class="node">
<title>\\MeTools\\Command\\Install\\CreateDirectoriesCommand</title>
<polygon fill="none" stroke="#000000" points="624.9769,-1998 445.9769,-1998 445.9769,-1962 624.9769,-1962 624.9769,-1998"/>
<text text-anchor="middle" x="535.4769" y="-1977.2" font-family="Courier,monospace" font-size="11.00" fill="#000000">CreateDirectoriesCommand</text>
</g>
<!-- \\MeTools\\Command\\Install\\CreateDirectoriesCommand&#45;&gt;\\MeTools\\Console\\Command -->
<g id="edge21" class="edge">
<title>\\MeTools\\Command\\Install\\CreateDirectoriesCommand&#45;&gt;\\MeTools\\Console\\Command</title>
<path fill="none" stroke="#000000" d="M452.9886,-1998.0651C444.1018,-2000.7377 435.2796,-2003.7143 426.9769,-2007 388.0471,-2022.4059 346.6399,-2046.412 318.1043,-2064.2959"/>
<polygon fill="none" stroke="#000000" points="315.8842,-2061.5591 309.3112,-2069.8686 319.6314,-2067.4718 315.8842,-2061.5591"/>
</g>
<!-- \\MeTools\\Command\\Install\\CreateVendorsLinksCommand -->
<g id="node23" class="node">
<title>\\MeTools\\Command\\Install\\CreateVendorsLinksCommand</title>
<polygon fill="none" stroke="#000000" points="627.9769,-1944 442.9769,-1944 442.9769,-1908 627.9769,-1908 627.9769,-1944"/>
<text text-anchor="middle" x="535.4769" y="-1923.2" font-family="Courier,monospace" font-size="11.00" fill="#000000">CreateVendorsLinksCommand</text>
</g>
<!-- \\MeTools\\Command\\Install\\CreateVendorsLinksCommand&#45;&gt;\\MeTools\\Console\\Command -->
<g id="edge23" class="edge">
<title>\\MeTools\\Command\\Install\\CreateVendorsLinksCommand&#45;&gt;\\MeTools\\Console\\Command</title>
<path fill="none" stroke="#000000" d="M446.7009,-1944.0597C439.8626,-1946.6584 433.2049,-1949.622 426.9769,-1953 375.6522,-1980.838 328.6601,-2031.151 302.8386,-2061.8696"/>
<polygon fill="none" stroke="#000000" points="300.1156,-2059.6703 296.4354,-2069.6054 305.508,-2064.1338 300.1156,-2059.6703"/>
</g>
<!-- \\MeTools\\Core\\Plugin -->
<g id="node24" class="node">
<title>\\MeTools\\Core\\Plugin</title>
<polygon fill="none" stroke="#000000" points="563.9769,-940 506.9769,-940 506.9769,-904 563.9769,-904 563.9769,-940"/>
<text text-anchor="middle" x="535.4769" y="-919.2" font-family="Courier,monospace" font-size="11.00" fill="#000000">Plugin</text>
</g>
<!-- Plugin -->
<g id="node33" class="node">
<title>Plugin</title>
<ellipse fill="none" stroke="#000000" cx="282.0842" cy="-180" rx="33.5952" ry="18"/>
<text text-anchor="middle" x="282.0842" y="-176.3" font-family="Times,serif" font-size="14.00" fill="#000000">Plugin</text>
</g>
<!-- \\MeTools\\Core\\Plugin&#45;&gt;Plugin -->
<g id="edge3" class="edge">
<title>\\MeTools\\Core\\Plugin&#45;&gt;Plugin</title>
<path fill="none" stroke="#000000" d="M506.7095,-914.9052C481.2372,-907.0021 445.3341,-891.5514 426.9769,-864 345.6512,-741.9421 455.5112,-321.6014 363.9769,-207 354.5641,-195.2151 339.8763,-188.5243 325.5233,-184.7433"/>
<polygon fill="none" stroke="#000000" points="326.23,-181.3151 315.709,-182.5637 324.7124,-188.1486 326.23,-181.3151"/>
</g>
<!-- \\MeTools\\Controller\\Component\\UploaderComponent -->
<g id="node25" class="node">
<title>\\MeTools\\Controller\\Component\\UploaderComponent</title>
<polygon fill="none" stroke="#000000" points="600.9769,-832 469.9769,-832 469.9769,-796 600.9769,-796 600.9769,-832"/>
<text text-anchor="middle" x="535.4769" y="-811.2" font-family="Courier,monospace" font-size="11.00" fill="#000000">UploaderComponent</text>
</g>
<!-- Component -->
<g id="node34" class="node">
<title>Component</title>
<ellipse fill="none" stroke="#000000" cx="282.0842" cy="-126" rx="51.9908" ry="18"/>
<text text-anchor="middle" x="282.0842" y="-122.3" font-family="Times,serif" font-size="14.00" fill="#000000">Component</text>
</g>
<!-- \\MeTools\\Controller\\Component\\UploaderComponent&#45;&gt;Component -->
<g id="edge4" class="edge">
<title>\\MeTools\\Controller\\Component\\UploaderComponent&#45;&gt;Component</title>
<path fill="none" stroke="#000000" d="M469.9293,-810.7993C453.7235,-806.8179 437.896,-799.6275 426.9769,-787 334.3697,-679.9039 452.527,-263.4743 363.9769,-153 357.8618,-145.3708 349.5366,-139.877 340.527,-135.9256"/>
<polygon fill="none" stroke="#000000" points="341.5466,-132.5702 330.9542,-132.3413 339.092,-139.1257 341.5466,-132.5702"/>
</g>
<!-- \\MeTools\\Controller\\Component\\FlashComponent -->
<g id="node26" class="node">
<title>\\MeTools\\Controller\\Component\\FlashComponent</title>
<polygon fill="none" stroke="#000000" points="590.9769,-778 479.9769,-778 479.9769,-742 590.9769,-742 590.9769,-778"/>
<text text-anchor="middle" x="535.4769" y="-757.2" font-family="Courier,monospace" font-size="11.00" fill="#000000">FlashComponent</text>
</g>
<!-- FlashComponent -->
<g id="node41" class="node">
<title>FlashComponent</title>
<ellipse fill="none" stroke="#000000" cx="282.0842" cy="-72" rx="71.4873" ry="18"/>
<text text-anchor="middle" x="282.0842" y="-68.3" font-family="Times,serif" font-size="14.00" fill="#000000">FlashComponent</text>
</g>
<!-- \\MeTools\\Controller\\Component\\FlashComponent&#45;&gt;FlashComponent -->
<g id="edge18" class="edge">
<title>\\MeTools\\Controller\\Component\\FlashComponent&#45;&gt;FlashComponent</title>
<path fill="none" stroke="#000000" d="M479.7347,-752.9622C460.139,-747.6324 439.8236,-738.3039 426.9769,-722 254.7349,-503.4042 538.2231,-316.0017 363.9769,-99 360.194,-94.2889 355.5685,-90.3922 350.46,-87.1701"/>
<polygon fill="none" stroke="#000000" points="351.9389,-83.9919 341.4704,-82.3599 348.6363,-90.1639 351.9389,-83.9919"/>
</g>
<!-- \\MeTools\\Utility\\BBCode -->
<g id="node27" class="node">
<title>\\MeTools\\Utility\\BBCode</title>
<polygon fill="none" stroke="#000000" points="563.9769,-690 506.9769,-690 506.9769,-654 563.9769,-654 563.9769,-690"/>
<text text-anchor="middle" x="535.4769" y="-669.2" font-family="Courier,monospace" font-size="11.00" fill="#000000">BBCode</text>
</g>
<!-- \\MeTools\\Utility\\Youtube -->
<g id="node28" class="node">
<title>\\MeTools\\Utility\\Youtube</title>
<polygon fill="none" stroke="#000000" points="567.4769,-636 503.4769,-636 503.4769,-600 567.4769,-600 567.4769,-636"/>
<text text-anchor="middle" x="535.4769" y="-615.2" font-family="Courier,monospace" font-size="11.00" fill="#000000">Youtube</text>
</g>
<!-- Command -->
<g id="node31" class="node">
<title>Command</title>
<ellipse fill="none" stroke="#000000" cx="80.0957" cy="-2088" rx="48.1917" ry="18"/>
<text text-anchor="middle" x="80.0957" y="-2084.3" font-family="Times,serif" font-size="14.00" fill="#c0c0c0">Command</text>
</g>
<!-- \\MeTools\\Console\\Command&#45;&gt;Command -->
<g id="edge24" class="edge">
<title>\\MeTools\\Console\\Command&#45;&gt;Command</title>
<path fill="none" stroke="#000000" d="M239.7408,-2088C210.4085,-2088 170.9751,-2088 138.6393,-2088"/>
<polygon fill="none" stroke="#000000" points="138.4118,-2084.5001 128.4118,-2088 138.4118,-2091.5001 138.4118,-2084.5001"/>
</g>
<!-- \\MeTools\\Plugin -->
<g id="node30" class="node">
<title>\\MeTools\\Plugin</title>
<polygon fill="none" stroke="#000000" points="563.9769,-582 506.9769,-582 506.9769,-546 563.9769,-546 563.9769,-582"/>
<text text-anchor="middle" x="535.4769" y="-561.2" font-family="Courier,monospace" font-size="11.00" fill="#000000">Plugin</text>
</g>
<!-- BasePlugin -->
<g id="node40" class="node">
<title>BasePlugin</title>
<ellipse fill="none" stroke="#000000" cx="282.0842" cy="-18" rx="50.8918" ry="18"/>
<text text-anchor="middle" x="282.0842" y="-14.3" font-family="Times,serif" font-size="14.00" fill="#000000">BasePlugin</text>
</g>
<!-- \\MeTools\\Plugin&#45;&gt;BasePlugin -->
<g id="edge16" class="edge">
<title>\\MeTools\\Plugin&#45;&gt;BasePlugin</title>
<path fill="none" stroke="#000000" d="M531.7485,-545.7801C514.4109,-462.6652 439.3238,-120.2964 363.9769,-45 356.8293,-37.8571 347.7575,-32.6039 338.2731,-28.7404"/>
<polygon fill="none" stroke="#000000" points="339.3019,-25.3913 328.7073,-25.3216 336.946,-31.983 339.3019,-25.3913"/>
</g>
</g>
</svg>
