<?xml version="1.0" encoding="UTF-8" standalone="no"?>
<!DOCTYPE svg PUBLIC "-//W3C//DTD SVG 1.1//EN"
 "http://www.w3.org/Graphics/SVG/1.1/DTD/svg11.dtd">
<!-- Generated by graphviz version 2.40.1 (20161225.0304)
 -->
<!-- Title: G Pages: 1 -->
<svg width="475pt" height="1064pt"
 viewBox="0.00 0.00 474.79 1064.00" xmlns="http://www.w3.org/2000/svg" xmlns:xlink="http://www.w3.org/1999/xlink">
<g id="graph0" class="graph" transform="scale(1 1) rotate(0) translate(4 1060)">
<title>G</title>
<polygon fill="#ffffff" stroke="transparent" points="-4,4 -4,-1060 470.7855,-1060 470.7855,4 -4,4"/>
<g id="clust1" class="cluster">
<title>cluster_Global</title>
<path fill="none" stroke="#c0c0c0" d="M21.797,-260C21.797,-260 446.7855,-260 446.7855,-260 452.7855,-260 458.7855,-266 458.7855,-272 458.7855,-272 458.7855,-1036 458.7855,-1036 458.7855,-1042 452.7855,-1048 446.7855,-1048 446.7855,-1048 21.797,-1048 21.797,-1048 15.797,-1048 9.797,-1042 9.797,-1036 9.797,-1036 9.797,-272 9.797,-272 9.797,-266 15.797,-260 21.797,-260"/>
<text text-anchor="middle" x="234.2912" y="-1035.2" font-family="Times,serif" font-size="11.00" fill="#c0c0c0">Global</text>
</g>
<g id="clust2" class="cluster">
<title>cluster_\MeTools</title>
<path fill="none" stroke="#c0c0c0" d="M231.7855,-268C231.7855,-268 438.7855,-268 438.7855,-268 444.7855,-268 450.7855,-274 450.7855,-280 450.7855,-280 450.7855,-1008 450.7855,-1008 450.7855,-1014 444.7855,-1020 438.7855,-1020 438.7855,-1020 231.7855,-1020 231.7855,-1020 225.7855,-1020 219.7855,-1014 219.7855,-1008 219.7855,-1008 219.7855,-280 219.7855,-280 219.7855,-274 225.7855,-268 231.7855,-268"/>
<text text-anchor="middle" x="335.2855" y="-1007.2" font-family="Times,serif" font-size="11.00" fill="#c0c0c0">MeTools</text>
</g>
<g id="clust3" class="cluster">
<title>cluster_\MeTools\View</title>
<path fill="none" stroke="#c0c0c0" d="M265.7855,-436C265.7855,-436 404.7855,-436 404.7855,-436 410.7855,-436 416.7855,-442 416.7855,-448 416.7855,-448 416.7855,-712 416.7855,-712 416.7855,-718 410.7855,-724 404.7855,-724 404.7855,-724 265.7855,-724 265.7855,-724 259.7855,-724 253.7855,-718 253.7855,-712 253.7855,-712 253.7855,-448 253.7855,-448 253.7855,-442 259.7855,-436 265.7855,-436"/>
<text text-anchor="middle" x="335.2855" y="-711.2" font-family="Times,serif" font-size="11.00" fill="#c0c0c0">View</text>
</g>
<g id="clust4" class="cluster">
<title>cluster_\MeTools\View\Helper</title>
<path fill="none" stroke="#c0c0c0" d="M273.7855,-570C273.7855,-570 396.7855,-570 396.7855,-570 402.7855,-570 408.7855,-576 408.7855,-582 408.7855,-582 408.7855,-684 408.7855,-684 408.7855,-690 402.7855,-696 396.7855,-696 396.7855,-696 273.7855,-696 273.7855,-696 267.7855,-696 261.7855,-690 261.7855,-684 261.7855,-684 261.7855,-582 261.7855,-582 261.7855,-576 267.7855,-570 273.7855,-570"/>
<text text-anchor="middle" x="335.2855" y="-683.2" font-family="Times,serif" font-size="11.00" fill="#c0c0c0">Helper</text>
</g>
<g id="clust5" class="cluster">
<title>cluster_\MeTools\View\Widget</title>
<path fill="none" stroke="#c0c0c0" d="M290.2855,-490C290.2855,-490 380.2855,-490 380.2855,-490 386.2855,-490 392.2855,-496 392.2855,-502 392.2855,-502 392.2855,-550 392.2855,-550 392.2855,-556 386.2855,-562 380.2855,-562 380.2855,-562 290.2855,-562 290.2855,-562 284.2855,-562 278.2855,-556 278.2855,-550 278.2855,-550 278.2855,-502 278.2855,-502 278.2855,-496 284.2855,-490 290.2855,-490"/>
<text text-anchor="middle" x="335.2855" y="-549.2" font-family="Times,serif" font-size="11.00" fill="#c0c0c0">Widget</text>
</g>
<g id="clust6" class="cluster">
<title>cluster_\MeTools\TestSuite</title>
<path fill="none" stroke="#c0c0c0" d="M239.7855,-732C239.7855,-732 430.7855,-732 430.7855,-732 436.7855,-732 442.7855,-738 442.7855,-744 442.7855,-744 442.7855,-900 442.7855,-900 442.7855,-906 436.7855,-912 430.7855,-912 430.7855,-912 239.7855,-912 239.7855,-912 233.7855,-912 227.7855,-906 227.7855,-900 227.7855,-900 227.7855,-744 227.7855,-744 227.7855,-738 233.7855,-732 239.7855,-732"/>
<text text-anchor="middle" x="335.2855" y="-899.2" font-family="Times,serif" font-size="11.00" fill="#c0c0c0">TestSuite</text>
</g>
<g id="clust7" class="cluster">
<title>cluster_\MeTools\Controller</title>
<path fill="none" stroke="#c0c0c0" d="M275.7855,-320C275.7855,-320 394.7855,-320 394.7855,-320 400.7855,-320 406.7855,-326 406.7855,-332 406.7855,-332 406.7855,-416 406.7855,-416 406.7855,-422 400.7855,-428 394.7855,-428 394.7855,-428 275.7855,-428 275.7855,-428 269.7855,-428 263.7855,-422 263.7855,-416 263.7855,-416 263.7855,-332 263.7855,-332 263.7855,-326 269.7855,-320 275.7855,-320"/>
<text text-anchor="middle" x="335.2855" y="-415.2" font-family="Times,serif" font-size="11.00" fill="#c0c0c0">Controller</text>
</g>
<g id="clust8" class="cluster">
<title>cluster_\MeTools\Controller\Component</title>
<path fill="none" stroke="#c0c0c0" d="M283.7855,-328C283.7855,-328 386.7855,-328 386.7855,-328 392.7855,-328 398.7855,-334 398.7855,-340 398.7855,-340 398.7855,-388 398.7855,-388 398.7855,-394 392.7855,-400 386.7855,-400 386.7855,-400 283.7855,-400 283.7855,-400 277.7855,-400 271.7855,-394 271.7855,-388 271.7855,-388 271.7855,-340 271.7855,-340 271.7855,-334 277.7855,-328 283.7855,-328"/>
<text text-anchor="middle" x="335.2855" y="-387.2" font-family="Times,serif" font-size="11.00" fill="#c0c0c0">Component</text>
</g>
<g id="clust9" class="cluster">
<title>cluster_\MeTools\Console</title>
<path fill="none" stroke="#c0c0c0" d="M297.2855,-920C297.2855,-920 373.2855,-920 373.2855,-920 379.2855,-920 385.2855,-926 385.2855,-932 385.2855,-932 385.2855,-980 385.2855,-980 385.2855,-986 379.2855,-992 373.2855,-992 373.2855,-992 297.2855,-992 297.2855,-992 291.2855,-992 285.2855,-986 285.2855,-980 285.2855,-980 285.2855,-932 285.2855,-932 285.2855,-926 291.2855,-920 297.2855,-920"/>
<text text-anchor="middle" x="335.2855" y="-979.2" font-family="Times,serif" font-size="11.00" fill="#c0c0c0">Console</text>
</g>
<g id="clust10" class="cluster">
<title>cluster_Global\Cake</title>
<path fill="none" stroke="#c0c0c0" d="M29.797,-912C29.797,-912 133.9885,-912 133.9885,-912 139.9885,-912 145.9885,-918 145.9885,-924 145.9885,-924 145.9885,-1008 145.9885,-1008 145.9885,-1014 139.9885,-1020 133.9885,-1020 133.9885,-1020 29.797,-1020 29.797,-1020 23.797,-1020 17.797,-1014 17.797,-1008 17.797,-1008 17.797,-924 17.797,-924 17.797,-918 23.797,-912 29.797,-912"/>
<text text-anchor="middle" x="81.8927" y="-1007.2" font-family="Times,serif" font-size="11.00" fill="#c0c0c0">Cake</text>
</g>
<g id="clust11" class="cluster">
<title>cluster_Global\Cake\Console</title>
<path fill="none" stroke="#c0c0c0" d="M37.797,-920C37.797,-920 125.9885,-920 125.9885,-920 131.9885,-920 137.9885,-926 137.9885,-932 137.9885,-932 137.9885,-980 137.9885,-980 137.9885,-986 131.9885,-992 125.9885,-992 125.9885,-992 37.797,-992 37.797,-992 31.797,-992 25.797,-986 25.797,-980 25.797,-980 25.797,-932 25.797,-932 25.797,-926 31.797,-920 37.797,-920"/>
<text text-anchor="middle" x="81.8927" y="-979.2" font-family="Times,serif" font-size="11.00" fill="#c0c0c0">Console</text>
</g>
<g id="clust12" class="cluster">
<title>cluster_Global\MeTools</title>
<path fill="none" stroke="#c0c0c0" d="M34.9965,-787C34.9965,-787 128.7889,-787 128.7889,-787 134.7889,-787 140.7889,-793 140.7889,-799 140.7889,-799 140.7889,-883 140.7889,-883 140.7889,-889 134.7889,-895 128.7889,-895 128.7889,-895 34.9965,-895 34.9965,-895 28.9965,-895 22.9965,-889 22.9965,-883 22.9965,-883 22.9965,-799 22.9965,-799 22.9965,-793 28.9965,-787 34.9965,-787"/>
<text text-anchor="middle" x="81.8927" y="-882.2" font-family="Times,serif" font-size="11.00" fill="#c0c0c0">MeTools</text>
</g>
<g id="clust13" class="cluster">
<title>cluster_Global\MeTools\TestSuite</title>
<path fill="none" stroke="#c0c0c0" d="M42.9965,-795C42.9965,-795 120.7889,-795 120.7889,-795 126.7889,-795 132.7889,-801 132.7889,-807 132.7889,-807 132.7889,-855 132.7889,-855 132.7889,-861 126.7889,-867 120.7889,-867 120.7889,-867 42.9965,-867 42.9965,-867 36.9965,-867 30.9965,-861 30.9965,-855 30.9965,-855 30.9965,-807 30.9965,-807 30.9965,-801 36.9965,-795 42.9965,-795"/>
<text text-anchor="middle" x="81.8927" y="-854.2" font-family="Times,serif" font-size="11.00" fill="#c0c0c0">TestSuite</text>
</g>
<!-- \\MeTools\\View\\Helper\\BreadcrumbsHelper -->
<g id="node1" class="node">
<title>\\MeTools\\View\\Helper\\BreadcrumbsHelper</title>
<polygon fill="none" stroke="#000000" points="400.7855,-668 269.7855,-668 269.7855,-632 400.7855,-632 400.7855,-668"/>
<text text-anchor="middle" x="335.2855" y="-647.2" font-family="Courier,monospace" font-size="11.00" fill="#000000">BreadcrumbsHelper</text>
</g>
<!-- BreadcrumbsHelper -->
<g id="node13" class="node">
<title>BreadcrumbsHelper</title>
<ellipse fill="none" stroke="#000000" cx="81.8927" cy="-234" rx="81.7856" ry="18"/>
<text text-anchor="middle" x="81.8927" y="-230.3" font-family="Times,serif" font-size="14.00" fill="#000000">BreadcrumbsHelper</text>
</g>
<!-- \\MeTools\\View\\Helper\\BreadcrumbsHelper&#45;&gt;BreadcrumbsHelper -->
<g id="edge1" class="edge">
<title>\\MeTools\\View\\Helper\\BreadcrumbsHelper&#45;&gt;BreadcrumbsHelper</title>
<path fill="none" stroke="#000000" d="M269.6964,-646.1881C251.7692,-642.2857 233.5207,-635.2892 219.7855,-623 110.3301,-525.0683 87.7507,-334.5713 83.0982,-262.5269"/>
<polygon fill="none" stroke="#000000" points="86.584,-262.1787 82.5141,-252.3968 79.5956,-262.5817 86.584,-262.1787"/>
</g>
<!-- \\MeTools\\View\\Helper\\IconHelper -->
<g id="node2" class="node">
<title>\\MeTools\\View\\Helper\\IconHelper</title>
<polygon fill="none" stroke="#000000" points="377.2855,-614 293.2855,-614 293.2855,-578 377.2855,-578 377.2855,-614"/>
<text text-anchor="middle" x="335.2855" y="-593.2" font-family="Courier,monospace" font-size="11.00" fill="#000000">IconHelper</text>
</g>
<!-- HtmlHelper -->
<g id="node15" class="node">
<title>HtmlHelper</title>
<ellipse fill="none" stroke="#000000" cx="81.8927" cy="-180" rx="53.0913" ry="18"/>
<text text-anchor="middle" x="81.8927" y="-176.3" font-family="Times,serif" font-size="14.00" fill="#000000">HtmlHelper</text>
</g>
<!-- \\MeTools\\View\\Helper\\IconHelper&#45;&gt;HtmlHelper -->
<g id="edge4" class="edge">
<title>\\MeTools\\View\\Helper\\IconHelper&#45;&gt;HtmlHelper</title>
<path fill="none" stroke="#000000" d="M293.1594,-595.9728C268.2727,-593.6164 238.1384,-586.2739 219.7855,-566 111.411,-446.282 268.2525,-330.1425 163.7855,-207 157.604,-199.7135 149.4142,-194.382 140.6017,-190.4837"/>
<polygon fill="none" stroke="#000000" points="141.8416,-187.2107 131.2508,-186.918 139.3475,-193.7513 141.8416,-187.2107"/>
</g>
<!-- \\MeTools\\View\\Widget\\HiddenWidget -->
<g id="node3" class="node">
<title>\\MeTools\\View\\Widget\\HiddenWidget</title>
<polygon fill="none" stroke="#000000" points="384.2855,-534 286.2855,-534 286.2855,-498 384.2855,-498 384.2855,-534"/>
<text text-anchor="middle" x="335.2855" y="-513.2" font-family="Courier,monospace" font-size="11.00" fill="#000000">HiddenWidget</text>
</g>
<!-- BasicWidget -->
<g id="node14" class="node">
<title>BasicWidget</title>
<ellipse fill="none" stroke="#000000" cx="81.8927" cy="-126" rx="56.59" ry="18"/>
<text text-anchor="middle" x="81.8927" y="-122.3" font-family="Times,serif" font-size="14.00" fill="#000000">BasicWidget</text>
</g>
<!-- \\MeTools\\View\\Widget\\HiddenWidget&#45;&gt;BasicWidget -->
<g id="edge2" class="edge">
<title>\\MeTools\\View\\Widget\\HiddenWidget&#45;&gt;BasicWidget</title>
<path fill="none" stroke="#000000" d="M286.0232,-518.7859C262.8913,-517.3702 236.7418,-511.3935 219.7855,-494 112.5748,-384.0254 263.6115,-269.7189 163.7855,-153 158.0591,-146.3046 150.6376,-141.2606 142.6031,-137.4627"/>
<polygon fill="none" stroke="#000000" points="143.9104,-134.216 133.329,-133.6825 141.2681,-140.6982 143.9104,-134.216"/>
</g>
<!-- \\MeTools\\View\\OptionsParser -->
<g id="node4" class="node">
<title>\\MeTools\\View\\OptionsParser</title>
<polygon fill="none" stroke="#000000" points="387.2855,-480 283.2855,-480 283.2855,-444 387.2855,-444 387.2855,-480"/>
<text text-anchor="middle" x="335.2855" y="-459.2" font-family="Courier,monospace" font-size="11.00" fill="#000000">OptionsParser</text>
</g>
<!-- \\MeTools\\TestSuite\\HelperTestCase -->
<g id="node5" class="node">
<title>\\MeTools\\TestSuite\\HelperTestCase</title>
<polygon fill="none" stroke="#000000" points="390.7855,-884 279.7855,-884 279.7855,-848 390.7855,-848 390.7855,-884"/>
<text text-anchor="start" x="301.2855" y="-869.2" font-family="Courier,monospace" font-size="11.00" fill="#000000">«abstract»</text>
<text text-anchor="start" x="287.7855" y="-857.2" font-family="Courier,monospace" font-size="11.00" fill="#000000">HelperTestCase</text>
</g>
<!-- TestCase -->
<g id="node12" class="node">
<title>TestCase</title>
<ellipse fill="none" stroke="#000000" cx="81.8927" cy="-821" rx="42.7926" ry="18"/>
<text text-anchor="middle" x="81.8927" y="-817.3" font-family="Times,serif" font-size="14.00" fill="#c0c0c0">TestCase</text>
</g>
<!-- \\MeTools\\TestSuite\\HelperTestCase&#45;&gt;TestCase -->
<g id="edge3" class="edge">
<title>\\MeTools\\TestSuite\\HelperTestCase&#45;&gt;TestCase</title>
<path fill="none" stroke="#000000" d="M279.6774,-856.1246C235.4394,-848.2684 174.1054,-837.376 131.5143,-829.8123"/>
<polygon fill="none" stroke="#000000" points="132.1087,-826.3632 121.6508,-828.0606 130.8847,-833.2553 132.1087,-826.3632"/>
</g>
<!-- \\MeTools\\TestSuite\\ComponentTestCase -->
<g id="node6" class="node">
<title>\\MeTools\\TestSuite\\ComponentTestCase</title>
<polygon fill="none" stroke="#000000" points="400.7855,-830 269.7855,-830 269.7855,-794 400.7855,-794 400.7855,-830"/>
<text text-anchor="start" x="301.2855" y="-815.2" font-family="Courier,monospace" font-size="11.00" fill="#000000">«abstract»</text>
<text text-anchor="start" x="277.7855" y="-803.2" font-family="Courier,monospace" font-size="11.00" fill="#000000">ComponentTestCase</text>
</g>
<!-- \\MeTools\\TestSuite\\ComponentTestCase&#45;&gt;TestCase -->
<g id="edge7" class="edge">
<title>\\MeTools\\TestSuite\\ComponentTestCase&#45;&gt;TestCase</title>
<path fill="none" stroke="#000000" d="M269.701,-814.3294C227.8372,-815.8163 174.2677,-817.719 135.0625,-819.1115"/>
<polygon fill="none" stroke="#000000" points="134.7843,-815.6191 124.9149,-819.4719 135.0329,-822.6147 134.7843,-815.6191"/>
</g>
<!-- \\MeTools\\TestSuite\\ConsoleIntegrationTestTrait -->
<g id="node7" class="node">
<title>\\MeTools\\TestSuite\\ConsoleIntegrationTestTrait</title>
<polygon fill="none" stroke="#000000" points="434.7855,-776 235.7855,-776 235.7855,-740 434.7855,-740 434.7855,-776"/>
<text text-anchor="middle" x="335.2855" y="-755.2" font-family="Courier,monospace" font-size="11.00" fill="#000000">ConsoleIntegrationTestTrait</text>
</g>
<!-- \\MeTools\\Controller\\Component\\FlashComponent -->
<g id="node8" class="node">
<title>\\MeTools\\Controller\\Component\\FlashComponent</title>
<polygon fill="none" stroke="#000000" points="390.7855,-372 279.7855,-372 279.7855,-336 390.7855,-336 390.7855,-372"/>
<text text-anchor="middle" x="335.2855" y="-351.2" font-family="Courier,monospace" font-size="11.00" fill="#000000">FlashComponent</text>
</g>
<!-- FlashComponent -->
<g id="node17" class="node">
<title>FlashComponent</title>
<ellipse fill="none" stroke="#000000" cx="81.8927" cy="-72" rx="71.4873" ry="18"/>
<text text-anchor="middle" x="81.8927" y="-68.3" font-family="Times,serif" font-size="14.00" fill="#000000">FlashComponent</text>
</g>
<!-- \\MeTools\\Controller\\Component\\FlashComponent&#45;&gt;FlashComponent -->
<g id="edge6" class="edge">
<title>\\MeTools\\Controller\\Component\\FlashComponent&#45;&gt;FlashComponent</title>
<path fill="none" stroke="#000000" d="M279.5162,-355.6346C258.3643,-353.3881 235.5933,-347.072 219.7855,-332 142.7028,-258.5053 235.9216,-177.3555 163.7855,-99 159.4604,-94.302 154.3029,-90.42 148.7106,-87.2124"/>
<polygon fill="none" stroke="#000000" points="150.1359,-84.0126 139.6218,-82.7069 147.0268,-90.2843 150.1359,-84.0126"/>
</g>
<!-- \\MeTools\\Console\\Command -->
<g id="node9" class="node">
<title>\\MeTools\\Console\\Command</title>
<polygon fill="none" stroke="#000000" points="377.2855,-964 293.2855,-964 293.2855,-928 377.2855,-928 377.2855,-964"/>
<text text-anchor="start" x="301.2855" y="-949.2" font-family="Courier,monospace" font-size="11.00" fill="#000000">«abstract»</text>
<text text-anchor="start" x="311.2855" y="-937.2" font-family="Courier,monospace" font-size="11.00" fill="#000000">Command</text>
</g>
<!-- Command -->
<g id="node11" class="node">
<title>Command</title>
<ellipse fill="none" stroke="#000000" cx="81.8927" cy="-946" rx="48.1917" ry="18"/>
<text text-anchor="middle" x="81.8927" y="-942.3" font-family="Times,serif" font-size="14.00" fill="#c0c0c0">Command</text>
</g>
<!-- \\MeTools\\Console\\Command&#45;&gt;Command -->
<g id="edge8" class="edge">
<title>\\MeTools\\Console\\Command&#45;&gt;Command</title>
<path fill="none" stroke="#000000" d="M293.1584,-946C251.4223,-946 187.1532,-946 140.4582,-946"/>
<polygon fill="none" stroke="#000000" points="140.1825,-942.5001 130.1825,-946 140.1825,-949.5001 140.1825,-942.5001"/>
</g>
<!-- \\MeTools\\Plugin -->
<g id="node10" class="node">
<title>\\MeTools\\Plugin</title>
<polygon fill="none" stroke="#000000" points="363.7855,-312 306.7855,-312 306.7855,-276 363.7855,-276 363.7855,-312"/>
<text text-anchor="middle" x="335.2855" y="-291.2" font-family="Courier,monospace" font-size="11.00" fill="#000000">Plugin</text>
</g>
<!-- BasePlugin -->
<g id="node16" class="node">
<title>BasePlugin</title>
<ellipse fill="none" stroke="#000000" cx="81.8927" cy="-18" rx="50.8918" ry="18"/>
<text text-anchor="middle" x="81.8927" y="-14.3" font-family="Times,serif" font-size="14.00" fill="#000000">BasePlugin</text>
</g>
<!-- \\MeTools\\Plugin&#45;&gt;BasePlugin -->
<g id="edge5" class="edge">
<title>\\MeTools\\Plugin&#45;&gt;BasePlugin</title>
<path fill="none" stroke="#000000" d="M327.8309,-275.9732C308.0705,-230.381 249.8982,-109.5261 163.7855,-45 155.4331,-38.7414 145.5562,-33.8891 135.6046,-30.1414"/>
<polygon fill="none" stroke="#000000" points="136.6826,-26.811 126.0879,-26.8769 134.4112,-33.4323 136.6826,-26.811"/>
</g>
</g>
</svg>
